HIERARCHY
ROOT Hips
{
	OFFSET -0.179506 -22.333345 2.821913
	CHANNELS 6 Xposition Yposition Zposition Zrotation Yrotation Xrotation 
	JOINT LeftUpLeg
	{
		OFFSET 6.951974 -9.140623 -0.681533
		CHANNELS 3 Zrotation Yrotation Xrotation
		JOINT LeftLeg
		{
			OFFSET 3.427654 -37.519855 -0.449580
			CHANNELS 3 Zrotation Yrotation Xrotation
			JOINT LeftFoot
			{
				OFFSET -1.359570 -39.796059 -4.369333
				CHANNELS 3 Zrotation Yrotation Xrotation
				JOINT LeftToe
				{
					OFFSET 2.635814 -5.579078 11.928840
					CHANNELS 3 Zrotation Yrotation Xrotation
					End Site
					{
						OFFSET 0.000000 0.000000 0.000000
					}
				}
			}
		}
	}
	JOINT RightUpLeg
	{
		OFFSET -6.767048 -9.052170 -0.431982
		CHANNELS 3 Zrotation Yrotation Xrotation
		JOINT RightLeg
		{
			OFFSET -3.829005 -38.256897 -0.885003
			CHANNELS 3 Zrotation Yrotation Xrotation
			JOINT RightFoot
			{
				OFFSET 1.577377 -39.841461 -4.231180
				CHANNELS 3 Zrotation Yrotation Xrotation
				JOINT RightToe
				{
					OFFSET -2.537174 -4.814398 12.334795
					CHANNELS 3 Zrotation Yrotation Xrotation
					End Site
					{
						OFFSET 0.000000 0.000000 0.000000
					}
				}
			}
		}
	}
	JOINT Spine
	{
		OFFSET -0.253288 10.896323 -2.669631
		CHANNELS 3 Zrotation Yrotation Xrotation
		JOINT Spine1
		{
			OFFSET 0.548704 13.518043 0.109247
			CHANNELS 3 Zrotation Yrotation Xrotation
			JOINT Spine2
			{
				OFFSET 0.145701 5.292222 2.542457
				CHANNELS 3 Zrotation Yrotation Xrotation
				JOINT Neck
				{
					OFFSET -0.277840 21.387037 -4.285703
					CHANNELS 3 Zrotation Yrotation Xrotation
					JOINT Head
					{
						OFFSET 0.515184 6.496960 5.134897
						CHANNELS 3 Zrotation Yrotation Xrotation
						End Site
						{
							OFFSET 0.000000 0.000000 0.000000
						}
					}
				}
				JOINT LeftShoulder
				{
					OFFSET 7.884473 12.174932 -3.408961
					CHANNELS 3 Zrotation Yrotation Xrotation
					JOINT LeftArm
					{
						OFFSET 9.097692 3.046888 -0.886815
						CHANNELS 3 Zrotation Yrotation Xrotation
						JOINT LeftForeArm
						{
							OFFSET 25.961220 -1.277207 -2.745643
							CHANNELS 3 Zrotation Yrotation Xrotation
							JOINT LeftHand
							{
								OFFSET 24.923361 0.898606 -0.117091
								CHANNELS 3 Zrotation Yrotation Xrotation
								End Site
								{
									OFFSET 0.000000 0.000000 0.000000
								}
							}
						}
					}
				}
				JOINT RightShoulder
				{
					OFFSET -8.175920 11.883285 -3.861528
					CHANNELS 3 Zrotation Yrotation Xrotation
					JOINT RightArm
					{
						OFFSET -9.601238 3.255117 -0.914307
						CHANNELS 3 Zrotation Yrotation Xrotation
						JOINT RightForeArm
						{
							OFFSET -25.374195 -1.332924 -2.140099
							CHANNELS 3 Zrotation Yrotation Xrotation
							JOINT RightHand
							{
								OFFSET -25.529810 0.777228 -0.555919
								CHANNELS 3 Zrotation Yrotation Xrotation
								End Site
								{
									OFFSET 0.000000 0.000000 0.000000
								}
							}
						}
					}
				}
			}
		}
	}
}
MOTION
Frames: 10
Frame Time: 0.033333
-69.768257 2.342138 72.145561 102.414284 -0.299042 88.450051 24.657697 3.265657 -48.637020 -14.616562 2.025327 69.660880 -1.122244 8.152290 -25.463443 nan nan nan -11.407215 1.098926 -32.530695 2.573699 -9.372192 93.912546 -2.184599 -5.364949 -34.167972 nan nan nan -9.584026 9.398925 34.367147 5.821174 -2.719895 6.326645 5.957551 -4.932945 -6.576379 18.232718 -29.173744 -10.730721 23.456828 -37.236370 -25.621253 -18.428608 -3.155601 2.335475 -53.107951 -19.260471 8.319651 47.370492 -47.212814 -36.303170 7.032486 -29.268887 -7.182477 26.299220 14.031015 0.949605 50.926221 0.354223 10.077425 -17.942726 32.971213 1.626505 -4.436733 24.356071 -20.342120 
-69.486015 2.194263 72.102737 102.049033 -0.297782 88.519936 24.898534 3.612492 -48.233188 -14.720493 1.965594 69.575374 -1.126200 8.125853 -25.700121 nan nan nan -11.812146 0.444921 -33.192828 2.220392 -10.109987 94.494665 -2.048725 -4.959999 -34.016619 nan nan nan -9.566961 9.286003 34.724118 5.935700 -2.700450 6.342724 6.064631 -5.027133 -6.641171 18.123268 -28.807258 -10.736231 23.444650 -37.224952 -25.777175 -18.537367 -3.465934 2.329705 -52.851255 -19.841433 8.391070 47.427736 -47.335423 -36.795298 6.439283 -29.519439 -6.747324 26.507362 13.858870 0.947445 50.756347 -0.518947 9.945721 -17.393407 33.104297 2.528480 -2.617268 23.987729 -19.207987 
-69.260323 1.991359 72.084129 101.733502 -0.286917 88.677213 25.154439 3.907659 -47.947739 -14.848320 1.910027 69.386740 -1.139513 8.220099 -25.809827 nan nan nan -12.143838 -0.055604 -34.045828 2.019261 -10.855120 95.001126 -1.872959 -4.738863 -33.823624 nan nan nan -9.560580 9.075264 35.189951 6.065414 -2.722559 6.062476 6.119469 -5.142440 -6.551307 18.109164 -28.510109 -10.987059 23.192192 -37.164038 -25.611102 -18.423583 -3.554746 2.297383 -52.779451 -20.310308 8.582102 47.315012 -47.743803 -36.902032 6.552853 -29.666477 -6.748040 26.595114 13.484231 0.719395 50.676160 -1.208653 9.981602 -16.569672 33.197992 3.823502 -1.017529 23.631392 -18.171724 
-69.033104 1.723517 72.051743 101.328429 -0.225684 88.886674 25.513760 4.329335 -47.671453 -15.061001 1.843342 69.165014 -1.252229 8.384742 -25.878098 nan nan nan -12.330145 -0.362295 -35.017502 1.826964 -11.593589 95.457387 -1.573932 -4.746756 -33.758886 nan nan nan -9.547934 8.811343 35.580861 6.127469 -2.717290 5.669631 6.140394 -5.294385 -6.341427 18.197346 -28.229994 -11.265192 22.884234 -37.059377 -25.264175 -18.092698 -3.464315 2.361510 -52.886070 -20.636387 8.742159 47.249259 -48.507393 -37.008200 6.972338 -29.681065 -6.371837 26.615990 13.049488 0.610792 50.748139 -1.576133 9.926284 -15.529702 33.055581 5.188198 0.636985 23.325968 -17.502933 
-68.768593 1.414669 72.009430 100.766648 -0.056428 89.089616 26.000297 4.907489 -47.279193 -15.142260 1.759390 68.956943 -1.431819 8.402160 -26.004649 nan nan nan -12.426698 -0.703188 -36.093905 1.546951 -12.200959 95.989616 -1.840278 -4.983285 -33.834443 nan nan nan -9.546127 8.467113 35.833705 6.192228 -2.628802 5.226723 6.145321 -5.327589 -6.024195 18.248887 -27.888090 -11.392447 22.615854 -37.029224 -25.123269 -17.755183 -3.203408 2.282220 -52.987487 -20.923950 8.961458 46.693326 -49.312448 -36.597220 7.585229 -29.875623 -6.342252 26.587004 12.560299 0.602321 50.825245 -1.942281 9.849762 -14.478032 32.929355 6.701276 2.062057 23.054796 -16.686090 
-68.504196 1.094626 72.000122 100.216555 0.012009 89.249559 26.356463 5.363656 -46.735247 -15.066414 1.696664 68.647909 -1.647214 8.448640 -26.222607 nan nan nan -12.637805 -1.239890 -37.091638 1.200848 -12.582670 96.491887 -2.389482 -5.541285 -34.003544 nan nan nan -9.533928 8.114144 36.015807 6.241266 -2.590690 4.943347 6.108300 -5.390162 -5.780671 18.326235 -27.432426 -11.551731 22.347329 -37.145301 -25.058976 -17.386087 -2.924141 2.201739 -53.010729 -21.230750 9.108245 46.131040 -50.060526 -36.094112 7.629078 -29.946177 -6.438006 26.571778 12.196366 0.660499 50.900309 -2.529172 10.024728 -13.676489 32.939527 7.870924 3.261617 22.834879 -16.141340 
-68.250076 0.772089 72.024902 99.729194 0.080182 89.437805 26.667895 5.716330 -46.214195 -14.921765 1.567877 68.297792 -1.853874 8.514034 -26.465580 nan nan nan -12.894620 -1.725076 -38.003923 0.914243 -13.010186 96.853290 -2.565558 -5.882956 -34.192396 nan nan nan -9.508791 7.677804 36.160238 6.365067 -2.584828 4.728251 6.137170 -5.436299 -5.588692 18.274714 -26.927217 -11.674246 22.150977 -37.186407 -25.255839 -17.119742 -2.752270 2.057227 -53.088069 -21.281139 9.222752 45.929562 -50.727319 -35.880494 7.165378 -30.108045 -6.525704 26.438470 12.005509 0.715482 50.942465 -3.302353 10.271616 -12.975007 32.991247 8.933347 3.840187 22.940816 -15.711346 
-67.987488 0.433480 72.064873 99.231355 0.131513 89.701167 26.975482 6.046492 -45.700360 -14.805475 1.408676 67.828019 -1.990628 8.651613 -26.672675 nan nan nan -13.256286 -2.220711 -39.009426 0.712934 -13.535927 97.252765 -2.485989 -5.845927 -33.847598 nan nan nan -9.563359 7.188190 36.127454 6.563318 -2.581445 4.635773 6.144842 -5.389903 -5.516128 18.150496 -26.352127 -11.767817 21.856643 -37.228662 -25.327234 -17.023427 -2.633210 1.888504 -53.129540 -21.055928 9.451925 45.770063 -51.453156 -35.414727 7.286018 -30.555436 -6.328693 26.468535 11.894309 0.853888 50.816470 -4.180571 10.558545 -12.335325 32.960409 9.886188 3.252752 23.554028 -15.014572 
-67.733269 0.046274 72.129662 98.674773 0.122396 89.995950 27.252151 6.410907 -45.124296 -14.722735 1.240952 67.226977 -2.133121 8.809309 -26.806484 nan nan nan -13.658819 -2.806046 -40.109055 0.528896 -14.013275 97.648414 -2.191116 -5.682037 -33.161575 nan nan nan -9.512207 6.757211 36.032084 6.654951 -2.546406 4.652716 6.120429 -5.445969 -5.593230 18.001965 -25.840128 -11.839626 21.599303 -37.248542 -25.353881 -17.068700 -2.640124 1.850619 -52.929242 -20.635161 9.741982 45.710025 -52.156507 -34.574145 7.938431 -31.139970 -5.825017 26.520024 11.791597 0.944671 50.843541 -5.097637 10.803835 -11.775568 32.765144 10.789837 2.854061 24.365955 -14.560779 
-67.459900 -0.370204 72.207520 98.120375 0.020313 90.225597 27.407351 6.728265 -44.423072 -14.553606 1.075432 66.619957 -2.224641 8.928121 -26.951716 nan nan nan -14.121263 -3.484707 -41.094935 0.345102 -14.354706 97.953145 -2.222901 -5.834645 -32.994553 nan nan nan -9.247939 6.406968 35.930677 6.597890 -2.511820 4.710850 6.033764 -5.721930 -5.656952 17.912534 -25.644997 -12.087788 21.263299 -37.113024 -25.111054 -17.242511 -2.661277 2.013904 -52.439737 -20.303489 9.866339 46.266666 -52.982081 -34.608581 7.182901 -31.005552 -5.083358 26.580961 11.479059 0.806919 50.984487 -5.894479 11.041109 -11.285651 32.462921 11.521724 4.524623 24.552736 -14.119229 
